<svg width="800" height="600" viewBox="0 0 800 600" fill="none" xmlns="http://www.w3.org/2000/svg">
  <!-- Main Background -->
  <rect width="800" height="600" rx="10" fill="#FFFFFF"/>
  
  <!-- Header -->
  <rect width="800" height="80" fill="#663399"/>
  <text x="40" y="50" fill="white" font-family="Arial" font-size="24" font-weight="bold">🖋️ Ayush Mandowara Blog</text>
  <text x="600" y="48" fill="white" font-family="Arial" font-size="14" opacity="0.8">Latest | Topics | Search</text>

  <!-- Hero Post -->
  <rect x="40" y="110" width="720" height="220" rx="10" fill="#F4F0FF" stroke="#663399" stroke-width="2"/>
  <text x="70" y="160" fill="#663399" font-family="Arial" font-size="28" font-weight="bold">Surgical AI Agents in 2026</text>
  <text x="70" y="195" fill="#4B4B4B" font-family="Arial" font-size="16">Exploring the shift from prompt engineering to tool-calling mastery.</text>
  <text x="70" y="225" fill="#888" font-family="Arial" font-size="12">April 20, 2026 • 8 min read</text>
  <rect x="70" y="250" width="120" height="35" rx="5" fill="#663399"/>
  <text x="95" y="272" fill="white" font-family="Arial" font-size="14">Read More</text>

  <!-- Side Grid -->
  <rect x="40" y="360" width="345" height="200" rx="10" fill="#F9F9F9" stroke="#EEE"/>
  <text x="60" y="400" fill="#333" font-family="Arial" font-size="18" font-weight="bold">The Vibe Coding Revolution</text>
  <text x="60" y="430" fill="#666" font-family="Arial" font-size="14">Why logic matters less than intent.</text>
  
  <rect x="415" y="360" width="345" height="200" rx="10" fill="#F9F9F9" stroke="#EEE"/>
  <text x="435" y="400" fill="#333" font-family="Arial" font-size="18" font-weight="bold">Gatsby v5 Deep Dive</text>
  <text x="435" y="430" fill="#666" font-family="Arial" font-size="14">Optimizing for sub-second delivery.</text>

  <!-- Tech Badges -->
  <rect x="40" y="520" width="80" height="25" rx="12" fill="#663399" opacity="0.1"/>
  <text x="55" y="537" fill="#663399" font-family="Arial" font-size="10" font-weight="bold">#AI</text>
  
  <rect x="130" y="520" width="100" height="25" rx="12" fill="#663399" opacity="0.1"/>
  <text x="145" y="537" fill="#663399" font-family="Arial" font-size="10" font-weight="bold">#Engineering</text>
</svg>
